<?xml version="1.0" encoding="utf-8"?>
<!-- Generator: Adobe Illustrator 23.0.0, SVG Export Plug-In . SVG Version: 6.00 Build 0)  -->
<svg version="1.1" id="Layer_1" xmlns="http://www.w3.org/2000/svg" xmlns:xlink="http://www.w3.org/1999/xlink" x="0px" y="0px"
	 viewBox="0 0 50 50" style="enable-background:new 0 0 50 50;" xml:space="preserve">
<style type="text/css">
	.st0{fill:#FFFFFF;}
	.st1{opacity:0.5;fill:#FFFFFF;enable-background:new    ;}
</style>
<g id="components">
	<path class="st0" d="M20.8,43.8L6.1,39.9c-1.7-0.4-2.9-1.3-2.9-2.9V20.8c0-1.6,1-3.3,2.9-2.9l14.7,3.9c1.7,0.5,2.9,1.3,2.9,2.9
		v16.2C23.7,42.5,22.2,44.2,20.8,43.8z"/>
	<path class="st0" d="M29.6,43.8l14.7-3.9c1.7-0.4,2.9-1.3,2.9-2.9V20.8c0-1.6-1-3.3-2.9-2.9l-14.7,3.9c-1.7,0.5-2.9,1.3-2.9,2.9
		v16.2C26.7,42.5,28.1,44.2,29.6,43.8z"/>
	<path class="st1" d="M23,19.7L5.3,14.8c-2.3-0.7-2.1-3.8,0-4.4L23,6.3c1.7-0.5,2.9-0.6,4.4,0l17.7,4.1c2.2,0.8,2,3.8,0,4.4
		l-17.7,4.9C25.6,20.2,25,20.2,23,19.7z"/>
</g>
</svg>
