<?xml version="1.0" encoding="utf-8"?>
<!-- Generator: Adobe Illustrator 23.0.0, SVG Export Plug-In . SVG Version: 6.00 Build 0)  -->
<svg version="1.1" id="Layer_1" xmlns="http://www.w3.org/2000/svg" xmlns:xlink="http://www.w3.org/1999/xlink" x="0px" y="0px"
	 viewBox="0 0 50 50" style="enable-background:new 0 0 50 50;" xml:space="preserve">
<style type="text/css">
	.st0{fill:#FFFFFF;}
	.st1{opacity:0.5;fill:#FFFFFF;enable-background:new    ;}
</style>
<g id="error">
	<path class="st0" d="M46.8,40.8L27.5,6.4c-1.1-1.9-3.8-1.9-4.9,0L3.2,40.8C2.1,42.7,3.5,45,5.7,45h38.7
		C46.5,45.1,47.9,42.7,46.8,40.8z M25,40.6c-1.5,0-2.7-1.2-2.7-2.7s1.2-2.7,2.7-2.7s2.7,1.2,2.7,2.7C27.7,39.4,26.5,40.6,25,40.6z
		 M26.6,32.7c0,0.8-0.6,1.4-1.4,1.4h-0.3c-0.8,0-1.4-0.6-1.4-1.4l-1.6-16.3c0-0.8,0.6-1.4,1.4-1.4h3.5c0.8,0,1.4,0.6,1.4,1.4
		L26.6,32.7z"/>
	<circle class="st1" cx="25" cy="37.9" r="2.7"/>
	<path class="st1" d="M26.7,15h-3.5c-0.8,0-1.4,0.6-1.4,1.4l1.6,16.3c0,0.8,0.6,1.4,1.4,1.4h0.3c0.8,0,1.4-0.6,1.4-1.4l1.6-16.3
		C28.2,15.6,27.5,15,26.7,15z"/>
</g>
</svg>
